<svg width="196" height="48" viewBox="0 0 196 48" fill="none" xmlns="http://www.w3.org/2000/svg">
<path d="M18.9534 7.6277C18.9534 7.6277 19.2803 7.19183 19.2803 6.86493C19.2803 6.53802 19.2258 6.37457 18.7354 5.66629C18.2451 4.958 17.8092 4.79455 17.6458 4.79455V0L32.9011 12.8581L27.5073 17.3802C27.5073 17.3802 27.0714 16.1816 25.7638 14.6561C24.4562 13.1305 22.4403 12.3133 22.4403 12.3133C22.4403 12.3133 23.53 11.8774 23.53 11.714C23.53 11.5505 23.4755 11.2781 22.9307 10.8422C22.3858 10.4064 21.732 10.1884 21.732 10.1884C21.732 10.1884 21.3506 9.5891 20.5879 8.82633C19.8251 8.06356 18.9534 7.6277 18.9534 7.6277Z" fill="url(#paint0_linear_539_1548)"/>
<path d="M17.6458 48L35.2984 32.9081V14.874L28.488 20.6493C28.488 20.6493 29.0134 26.3156 26.1452 29.9659C23.277 33.6163 18.8444 37.1578 18.4085 37.3212C17.9727 37.4847 17.6458 37.4847 17.6458 37.4847V48Z" fill="url(#paint1_linear_539_1548)"/>
<path d="M17.6458 48L0.000148773 32.9081V14.874L6.81059 20.6493C6.81059 20.6493 6.28521 26.3156 9.15338 29.9659C12.0216 33.6163 16.4542 37.1578 16.89 37.3212C17.3259 37.4847 17.6458 37.4847 17.6458 37.4847V48Z" fill="url(#paint2_linear_539_1548)"/>
<path d="M16.3381 7.6277C16.3381 7.6277 16.0112 7.19183 16.0112 6.86493C16.0112 6.53802 16.0657 6.37457 16.5561 5.66629C17.0464 4.958 17.4823 4.79455 17.6458 4.79455V0L2.39036 12.8581L7.78423 17.3802C7.78423 17.3802 8.2201 16.1816 9.5277 14.6561C10.8353 13.1305 12.8512 12.3133 12.8512 12.3133C12.8512 12.3133 11.7615 11.8774 11.7615 11.714C11.7615 11.5505 11.816 11.2781 12.3609 10.8422C12.9057 10.4064 13.5595 10.1884 13.5595 10.1884C13.5595 10.1884 13.9409 9.5891 14.7036 8.82633C15.4664 8.06356 16.3381 7.6277 16.3381 7.6277Z" fill="url(#paint3_linear_539_1548)"/>
<ellipse cx="17.6455" cy="21.3027" rx="5.55732" ry="5.6118" fill="url(#paint4_linear_539_1548)"/>
<path d="M71.6347 34H66.4401L59.8579 27.311H56.0509V34H51.9948V16.2814H67.1873C69.8439 16.2814 71.1722 17.3132 71.1722 19.3768V24.2156C71.1722 25.71 70.4843 26.7418 69.1086 27.311H64.839L71.6347 34ZM67.1873 22.8636V20.7288C67.1873 19.8038 66.7959 19.3412 66.0132 19.3412H56.0509V24.2868H66.0132C66.7959 24.2868 67.1873 23.8124 67.1873 22.8636ZM89.2183 34H74.1681V21.9741C74.1681 20.3375 74.9983 19.5191 76.6587 19.5191H89.0759V21.9741H77.5482V25.2474H84.0236V27.7024H77.5482V31.296H89.2183V34ZM96.4195 31.8652C96.3958 32.8615 95.8384 33.3833 94.7473 33.4307H92.5057C91.4384 33.4307 90.9047 32.9089 90.9047 31.8652V29.9084C90.9284 28.8884 91.4858 28.3666 92.5769 28.3429H94.8184C95.8858 28.3429 96.4195 28.8647 96.4195 29.9084V31.8652ZM96.2416 24.0377C96.2179 25.034 95.6605 25.5558 94.5694 25.6032H92.3278C91.2605 25.6032 90.7268 25.0814 90.7268 24.0377V22.0809C90.7505 21.0609 91.3079 20.5391 92.399 20.5154H94.6405C95.7079 20.5154 96.2416 21.0372 96.2416 22.0809V24.0377Z" fill="url(#paint5_linear_539_1548)"/>
<path d="M121.256 29.8016C121.256 31.462 120.936 32.5768 120.295 33.1461C119.679 33.7154 118.528 34 116.844 34H106.277C104.593 34 103.431 33.7154 102.79 33.1461C102.173 32.5768 101.865 31.462 101.865 29.8016V20.4442C101.865 18.8075 102.173 17.7046 102.79 17.1353C103.431 16.5423 104.593 16.2458 106.277 16.2458H116.844C119.69 16.2695 121.161 17.2539 121.256 19.1989V21.7962H117.129V19.4124H105.992V30.6555H117.129V28.0582H121.256V29.8016ZM138.397 34H123.632V19.8749H127.012V31.3315H138.397V34ZM162.349 34H158.827L156.763 30.9046H146.517L144.56 34H140.931L149.825 19.8038H153.348L162.349 34ZM155.127 28.3073L151.604 22.5434L148.082 28.3073H155.127ZM170.159 34H167.099V19.7682H170.159V34ZM195.99 34H192.966V23.504L186.49 28.6631L179.979 23.504V34H177.062V19.5191H180.086L186.49 24.8916L193.037 19.5191H195.99V34Z" fill="#F79F19"/>
<defs>
<linearGradient id="paint0_linear_539_1548" x1="25.2734" y1="0" x2="25.2734" y2="17.3802" gradientUnits="userSpaceOnUse">
<stop stop-color="#377CB9"/>
<stop offset="1" stop-color="#03325C"/>
</linearGradient>
<linearGradient id="paint1_linear_539_1548" x1="26.4721" y1="14.874" x2="26.4721" y2="48" gradientUnits="userSpaceOnUse">
<stop stop-color="#055BA8"/>
<stop offset="1" stop-color="#03325C"/>
</linearGradient>
<linearGradient id="paint2_linear_539_1548" x1="8.82294" y1="14.874" x2="8.82294" y2="48" gradientUnits="userSpaceOnUse">
<stop stop-color="#FDCC05"/>
<stop offset="1" stop-color="#F79F19"/>
</linearGradient>
<linearGradient id="paint3_linear_539_1548" x1="17.6458" y1="8.69012" x2="2.39036" y2="8.69012" gradientUnits="userSpaceOnUse">
<stop stop-color="#03325C"/>
<stop offset="1" stop-color="#055BA8"/>
</linearGradient>
<linearGradient id="paint4_linear_539_1548" x1="17.6455" y1="15.6909" x2="17.6455" y2="26.9145" gradientUnits="userSpaceOnUse">
<stop stop-color="#FDCC05"/>
<stop offset="1" stop-color="#F79F19"/>
</linearGradient>
<linearGradient id="paint5_linear_539_1548" x1="47.2983" y1="24" x2="200.298" y2="24" gradientUnits="userSpaceOnUse">
<stop stop-color="#055BA8"/>
<stop offset="1" stop-color="#03325C"/>
</linearGradient>
</defs>
</svg>
