<svg width="196" height="48" viewBox="0 0 196 48" fill="none" xmlns="http://www.w3.org/2000/svg">
<g clip-path="url(#clip0_915_1753)">
<path d="M18.9532 7.6277C18.9532 7.6277 19.2801 7.19183 19.2801 6.86493C19.2801 6.53802 19.2257 6.37457 18.7353 5.66629C18.245 4.958 17.8091 4.79455 17.6456 4.79455V0L32.901 12.8581L27.5072 17.3802C27.5072 17.3802 27.0713 16.1816 25.7637 14.6561C24.4561 13.1305 22.4402 12.3133 22.4402 12.3133C22.4402 12.3133 23.5299 11.8774 23.5299 11.714C23.5299 11.5505 23.4754 11.2781 22.9305 10.8422C22.3857 10.4064 21.7319 10.1884 21.7319 10.1884C21.7319 10.1884 21.3505 9.5891 20.5877 8.82633C19.825 8.06356 18.9532 7.6277 18.9532 7.6277Z" fill="#FDCC05"/>
<path d="M17.6456 48L35.2983 32.9081V14.874L28.4879 20.6493C28.4879 20.6493 29.0132 26.3156 26.1451 29.9659C23.2769 33.6163 18.8443 37.1578 18.4084 37.3212C17.9725 37.4847 17.6456 37.4847 17.6456 37.4847V48Z" fill="#FDCC05"/>
<path d="M17.6456 48L3.43323e-05 32.9081V14.874L6.81048 20.6493C6.81048 20.6493 6.2851 26.3156 9.15327 29.9659C12.0214 33.6163 16.4541 37.1578 16.8899 37.3212C17.3258 37.4847 17.6456 37.4847 17.6456 37.4847V48Z" fill="#FDCC05"/>
<path d="M16.338 7.6277C16.338 7.6277 16.0111 7.19183 16.0111 6.86493C16.0111 6.53802 16.0656 6.37457 16.556 5.66629C17.0463 4.958 17.4822 4.79455 17.6456 4.79455V0L2.39025 12.8581L7.78412 17.3802C7.78412 17.3802 8.21998 16.1816 9.52759 14.6561C10.8352 13.1305 12.8511 12.3133 12.8511 12.3133C12.8511 12.3133 11.7614 11.8774 11.7614 11.714C11.7614 11.5505 11.8159 11.2781 12.3607 10.8422C12.9056 10.4064 13.5594 10.1884 13.5594 10.1884C13.5594 10.1884 13.9408 9.5891 14.7035 8.82633C15.4663 8.06356 16.338 7.6277 16.338 7.6277Z" fill="#FDCC05"/>
<ellipse cx="17.6455" cy="21.3027" rx="5.55732" ry="5.6118" fill="#FDCC05"/>
<path d="M71.6347 34H66.4401L59.8579 27.311H56.0509V34H51.9948V16.2814H67.1873C69.8439 16.2814 71.1722 17.3132 71.1722 19.3768V24.2156C71.1722 25.71 70.4843 26.7418 69.1085 27.311H64.839L71.6347 34ZM67.1873 22.8636V20.7288C67.1873 19.8038 66.7959 19.3412 66.0131 19.3412H56.0509V24.2868H66.0131C66.7959 24.2868 67.1873 23.8124 67.1873 22.8636ZM89.2182 34H74.1681V21.9741C74.1681 20.3375 74.9983 19.5191 76.6586 19.5191H89.0759V21.9741H77.5481V25.2474H84.0236V27.7024H77.5481V31.296H89.2182V34ZM96.4194 31.8652C96.3957 32.8615 95.8383 33.3833 94.7472 33.4307H92.5057C91.4383 33.4307 90.9046 32.9089 90.9046 31.8652V29.9084C90.9283 28.8884 91.4858 28.3666 92.5769 28.3429H94.8184C95.8858 28.3429 96.4194 28.8647 96.4194 29.9084V31.8652ZM96.2415 24.0377C96.2178 25.034 95.6604 25.5558 94.5693 25.6032H92.3278C91.2604 25.6032 90.7267 25.0814 90.7267 24.0377V22.0809C90.7504 21.0609 91.3079 20.5391 92.399 20.5154H94.6405C95.7079 20.5154 96.2415 21.0372 96.2415 22.0809V24.0377ZM121.256 29.8016C121.256 31.462 120.936 32.5768 120.295 33.1461C119.679 33.7154 118.528 34 116.844 34H106.277C104.593 34 103.431 33.7154 102.79 33.1461C102.173 32.5768 101.865 31.462 101.865 29.8016V20.4442C101.865 18.8075 102.173 17.7046 102.79 17.1353C103.431 16.5423 104.593 16.2458 106.277 16.2458H116.844C119.69 16.2695 121.161 17.2539 121.256 19.1989V21.7962H117.129V19.4124H105.992V30.6555H117.129V28.0582H121.256V29.8016ZM138.397 34H123.632V19.8749H127.012V31.3315H138.397V34ZM162.349 34H158.827L156.763 30.9046H146.517L144.56 34H140.931L149.825 19.8038H153.348L162.349 34ZM155.127 28.3073L151.604 22.5434L148.082 28.3073H155.127ZM170.159 34H167.099V19.7682H170.159V34ZM195.99 34H192.966V23.504L186.49 28.6631L179.979 23.504V34H177.062V19.5191H180.086L186.49 24.8916L193.037 19.5191H195.99V34Z" fill="white"/>
</g>
<defs>
<clipPath id="clip0_915_1753">
<rect width="196" height="48" fill="white"/>
</clipPath>
</defs>
</svg>
